<?xml version="1.0" encoding="UTF-8" standalone="no"?>
<!-- Created with Inkscape (http://www.inkscape.org/) -->

<svg
   xmlns:dc="http://purl.org/dc/elements/1.1/"
   xmlns:cc="http://creativecommons.org/ns#"
   xmlns:rdf="http://www.w3.org/1999/02/22-rdf-syntax-ns#"
   xmlns:svg="http://www.w3.org/2000/svg"
   xmlns="http://www.w3.org/2000/svg"
   xmlns:sodipodi="http://sodipodi.sourceforge.net/DTD/sodipodi-0.dtd"
   xmlns:inkscape="http://www.inkscape.org/namespaces/inkscape"
   width="541.03271"
   height="131.11581"
   id="svg2"
   version="1.1"
   inkscape:version="0.48.2 r9819"
   sodipodi:docname="lurkur_larettur_skuggalaus_barkarlaus.svg">
  <defs
     id="defs4" />
  <sodipodi:namedview
     id="base"
     pagecolor="#ffffff"
     bordercolor="#666666"
     borderopacity="1.0"
     inkscape:pageopacity="0.0"
     inkscape:pageshadow="2"
     inkscape:zoom="1.4142136"
     inkscape:cx="185.28315"
     inkscape:cy="137.57331"
     inkscape:document-units="px"
     inkscape:current-layer="layer1"
     showgrid="false"
     showguides="true"
     inkscape:guide-bbox="true"
     fit-margin-top="0"
     fit-margin-left="0"
     fit-margin-right="0"
     fit-margin-bottom="0"
     inkscape:window-width="1920"
     inkscape:window-height="1152"
     inkscape:window-x="0"
     inkscape:window-y="0"
     inkscape:window-maximized="1" />
  <metadata
     id="metadata7">
    <rdf:RDF>
      <cc:Work
         rdf:about="">
        <dc:format>image/svg+xml</dc:format>
        <dc:type
           rdf:resource="http://purl.org/dc/dcmitype/StillImage" />
        <dc:title></dc:title>
      </cc:Work>
    </rdf:RDF>
  </metadata>
  <g
     inkscape:label="Layer 1"
     inkscape:groupmode="layer"
     id="layer1"
     transform="translate(-561.66399,-128.93204)">
    <path
       style="fill:#000000"
       d="m 1069.1767,128.93208 c 17.1416,2.3697 20.5776,9.30628 23.9637,14.5792 2.601,4.05017 7.5215,16.42948 8.6638,23.62758 1.1259,7.09496 1.1466,16.31936 0.2867,25.32244 0.6296,20.8478 -8.5137,38.41572 -13.9588,41.29867 -6.081,2.91854 -61.9324,3.12912 -112.62596,3.24339 -50.69351,0.11426 -75.24704,0.17078 -89.10304,0.0138 5.44569,3.92319 15.98172,7.16202 15.53154,9.82024 -0.93536,5.52312 -6.99387,14.96502 -17.53949,12.92732 -12.65706,-2.44568 -24.64769,-10.89652 -29.14962,-13.2251 -9.14326,-4.72928 -13.59216,-6.71036 -19.68502,-7.96804 -40.56138,0.15446 -204.62924,1.85157 -225.76245,0.556 -17.06992,-0.29988 -24.35719,-1.9431 -28.44322,-3.9665 -3.39546,-1.3712 -12.8195,-13.22259 -15.87752,-19.91942 -1.81519,-4.90741 -4.39185,-22.39192 -3.65542,-29.11956 0.47422,-4.33284 1.97463,-10.5929 3.67292,-15.32444 1.5792,-4.39953 3.09882,-8.71817 3.37708,-9.59677 0.27834,-0.87857 1.07456,-2.09328 1.76971,-2.69928 0.69525,-0.60598 2.15831,-2.81695 3.25126,-4.9133 3.69621,-7.08937 9.65055,-12.97877 16.90149,-16.71733 2.76115,-1.42357 10.43333,-3.23283 17.09828,-3.39495 l 27.98791,-0.68075 c 70.7383,0.1879 181.82956,-1.53933 271.06169,-1.20152 97.61926,-0.25158 140.72746,-0.77951 162.23446,-2.66172 z m -499.50299,60.67653 c -0.88864,10.22282 1.33835,21.04495 5.83021,28.33211 7.65452,12.41768 14.52431,14.38319 48.83935,13.9731 14.83647,-0.17722 24.63711,-0.19397 59.23006,-0.101 36.74986,0.0988 63.83322,-0.23209 65.74069,-0.8032 1.03879,-0.31098 2.8872,-0.36398 4.10758,-0.11777 1.21952,0.25038 5.26372,0.16091 8.9852,-0.18954 3.72148,-0.35045 8.3319,-0.31937 10.24535,0.0691 1.91263,0.39258 3.97943,0.39463 4.59102,0.0137 0.6116,-0.381 2.92018,-0.54974 5.13017,-0.3749 2.20998,0.17485 6.55057,0.2895 9.64575,0.25495 14.48162,-0.16186 19.59813,-0.13581 28.55401,0.14515 5.29984,0.16618 10.13482,-0.002 10.74443,-0.37284 1.44511,-0.8802 5.24788,-0.0716 8.78293,1.86719 1.54976,0.85018 5.72707,2.85704 9.2829,4.45978 l 6.46517,2.91401 5.10741,-2.52661 c 2.8091,-1.38974 5.67029,-2.41118 6.35822,-2.26997 2.92929,0.6013 1.52751,2.18457 -3.80423,4.29672 -4.68336,1.85527 -5.40689,2.44033 -4.0347,3.26265 1.12628,0.67484 2.84153,0.30448 5.25486,-1.13454 3.29082,-1.96227 8.25621,-2.2542 7.88871,-0.46383 -0.0855,0.41621 -1.86874,1.271 -3.96288,1.89945 -2.09412,0.62835 -3.88056,1.49841 -3.96985,1.93344 -0.24179,1.17773 2.45222,3.08203 6.46335,4.56865 3.01416,1.1171 3.61375,1.04469 3.92554,-0.47425 0.42316,-2.06121 3.53692,-2.91361 4.62351,-1.26566 0.45688,0.69282 -0.14051,1.36931 -1.58964,1.80003 -3.3153,0.98548 -2.33567,2.33105 3.09099,4.24533 7.43349,2.62227 10.37938,2.17856 13.12066,-1.97792 1.29138,-1.95792 2.37877,-3.70996 2.41641,-3.89334 0.0374,-0.18351 -2.09223,-1.05046 -4.7331,-1.92657 -5.01027,-1.66231 -13.22836,-7.99492 -13.64521,-10.51471 -0.35091,-2.12119 1.9415,-3.58298 5.66595,-3.6131 1.78894,-0.0145 3.76549,-0.28691 4.39235,-0.60546 0.94479,-0.48013 17.28435,-0.82934 35.88718,-0.76684 2.24433,0.008 8.90725,-0.002 14.80652,-0.0204 5.89924,-0.0187 14.85828,-0.0239 19.90898,-0.0117 20.17466,0.0492 25.58556,-0.16601 26.44729,-1.05173 0.49502,-0.50885 1.09783,-0.62511 1.33959,-0.25851 0.42156,0.63932 8.48839,0.80109 27.74906,0.55628 23.3893,-0.2973 27.5927,-0.42173 30.366,-0.89891 1.6385,-0.28201 4.1613,-0.26335 5.6062,0.0414 1.4445,0.3067 5.8242,0.19377 9.7317,-0.24651 l 7.1044,-0.8005 -2.6191,-3.65298 c -5.3139,-7.41136 -8.1111,-14.35055 -10.0072,-24.82527 -3.2832,-18.13671 -2.8457,-38.90676 1.1346,-53.86788 1.0269,-3.85985 1.6005,-7.06161 1.2747,-7.11512 -0.3258,-0.0534 -2.448,-0.009 -4.7161,0.0996 -9.2062,0.43972 -17.5842,0.40295 -19.9733,-0.0875 -1.3921,-0.28576 -2.9115,-0.2686 -3.3766,0.038 -0.465,0.30665 -5.2807,0.45515 -10.7015,0.32999 -5.4209,-0.12517 -14.2299,-0.18059 -19.57558,-0.12323 -5.34572,0.0574 -14.30074,0.043 -19.90003,-0.0319 -5.5993,-0.0749 -11.81545,-0.004 -13.81366,0.15669 -3.45224,0.27841 -7.03051,0.30218 -29.64503,0.19665 -5.32885,-0.0248 -13.83954,0.0342 -18.91266,0.13116 -11.26489,0.21528 -26.57303,0.29253 -38.83254,0.19594 -5.04505,-0.0398 -18.36999,-0.0259 -29.61097,0.0307 -11.24101,0.0567 -24.56999,0.0902 -29.61999,0.0746 -5.04999,-0.0157 -13.78495,0.0169 -19.41101,0.0723 -5.62606,0.0555 -14.01,0.0565 -18.63099,0.002 -4.62098,-0.0542 -8.49676,0.36413 -8.61282,0.92953 -48.85887,-0.20612 -71.97189,0.64433 -98.5559,-0.1268 -15.95012,0.21559 -40.59614,0.34302 -51.02688,0.26391 -10.37233,-0.0787 -19.29114,0.58104 -21.25007,1.57178 -0.93975,0.47525 -3.16292,1.23494 -4.94032,1.68799 -3.92908,1.00171 -4.54928,1.40821 -9.57591,6.27629 -4.10514,3.97555 -11.54179,14.54335 -12.08021,17.16635 -0.16811,0.81923 -0.85754,1.69152 -1.53211,1.93862 -1.25794,0.46077 -1.6279,2.87131 -3.17891,20.7153 z m 279.39916,40.36791 c 2.79976,-1.48904 9.66054,-2.22799 10.79079,-1.16225 1.08707,1.02502 -6.1334,3.79042 -10.37865,3.97497 -3.19743,0.13901 -3.39731,-1.22504 -0.41214,-2.81272 z m 5.86459,3.75575 c 5.68071,-2.4853 10.60318,-3.16601 10.24411,-1.41677 -0.18912,0.92108 -9.61016,4.2397 -11.14279,3.92509 -1.26564,-0.25982 -0.7126,-1.80342 0.89868,-2.50832 z m 15.26223,10.19258 c 2.31612,-1.1363 5.00602,-1.27065 5.37311,-0.26847 0.36295,0.99082 -4.41438,3.24433 -6.13094,2.89197 -1.394,-0.28611 -0.96262,-1.77951 0.75783,-2.6235 z m 11.4816,5.81649 c 1.23598,-0.81502 5.38104,0.30933 5.15738,1.39891 -0.11064,0.53876 -1.5235,0.70812 -3.1398,0.37634 -3.04343,-0.62468 -3.35143,-0.89579 -2.01758,-1.77525 z m 177.22381,-80.60136 c -0.027,5.77317 0.1594,11.25869 0.4132,12.19017 0.2539,0.93138 0.5383,4.00617 0.6321,6.83275 0.094,2.82658 0.6079,7.06657 1.1425,9.42219 2.6082,11.49094 3.2313,14.46578 3.1317,14.95087 -0.1017,0.49527 3.1407,6.37076 6.1387,11.12355 1.0084,1.59872 2.818,2.43864 7.1857,3.3352 5.0875,1.04432 6.2237,0.9224 8.8411,-0.94881 1.7572,-1.25624 3.625,-3.8432 4.5014,-6.2345 0.824,-2.24805 1.9375,-4.2483 2.4746,-4.44503 1.7782,-0.65133 3.6395,-13.27419 4.0073,-27.178 0.3658,-13.82248 -0.2254,-21.02771 -2.0759,-25.30221 -0.554,-1.27995 -0.874,-2.97676 -0.7111,-3.77071 0.3573,-1.7407 -2.5837,-9.03485 -5.7956,-14.37415 -1.7322,-2.87942 -3.9854,-4.72692 -8.7195,-7.14933 -3.5111,-1.79649 -7.3311,-3.46091 -8.489,-3.6986 -6.8572,-1.40756 -12.5815,14.50807 -12.6772,35.24661 z m 8.3893,-20.81404 c 1.8971,-3.51072 6.4671,-6.57213 10.0427,-6.72763 6.9172,-0.30073 15.6051,14.5634 16.2659,27.82923 0.9987,20.04921 -0.3869,35.75315 -3.8689,43.84996 -3.0631,7.12257 -4.3471,8.48878 -9.5394,10.14954 -4.6617,1.49109 -5.2714,1.51019 -5.8791,0.1838 -0.2372,-0.51777 -1.8963,-2.10858 -3.6869,-3.53525 -4.4828,-3.57165 -7.4848,-15.82435 -8.1959,-33.45177 -0.5904,-14.6333 1.662,-32.377 4.8616,-38.29788 z m -1.5015,24.19222 c -0.4337,14.5265 0.038,24.30278 1.4858,30.8081 3.0541,13.72126 3.37,14.39291 8.0261,17.06278 3.4354,1.96982 3.7131,1.96638 6.362,-0.0809 1.5233,-1.17733 3.6618,-3.90258 4.7522,-6.05603 2.3755,-4.69186 4.734,-20.15943 4.337,-28.44295 -0.1494,-3.11876 -0.1925,-7.60412 -0.096,-9.9676 0.097,-2.36339 -0.1752,-4.62838 -0.6047,-5.03341 -0.4295,-0.40493 -0.6293,-1.47447 -0.4441,-2.37665 1.1927,-5.81055 -7.0233,-23.14964 -11.3467,-23.94626 -7.0371,-1.29657 -11.9243,9.68846 -12.472,28.03292 z m 8.6812,-14.2964 c 0.865,-1.64721 2.001,-2.90703 2.5243,-2.79959 1.1443,0.23486 0.3723,4.0909 -1.9294,9.63736 -1.2497,3.01123 -1.5901,5.9995 -1.307,11.4715 0.2106,4.06978 0.1017,8.80775 -0.242,10.5289 -0.3441,1.72096 -0.2919,3.44323 0.1151,3.8269 0.407,0.38377 0.688,3.56945 0.6246,7.07917 -0.139,7.68412 1.1007,14.28755 2.7454,14.62517 4.2661,0.87571 8.1705,-15.26089 6.6694,-27.56392 -0.5165,-4.23352 -0.706,-10.36128 -0.421,-13.61739 0.5397,-6.16775 -0.1699,-9.25112 -3.367,-14.62924 -1.7922,-3.01473 -1.7882,-3.17438 0.071,-2.79279 1.0844,0.22259 2.6969,1.58719 3.5832,3.03243 2.1221,3.4604 3.8672,12.20162 3.1415,15.73681 -0.8248,4.01783 -0.6526,13.12782 0.3142,16.62627 0.5364,1.9409 0.1436,6.42499 -1.1239,12.82853 -1.867,9.43254 -2.0779,9.92295 -5.0402,11.71867 -1.7004,1.03074 -3.4871,1.79295 -3.9703,1.69375 -1.9996,-0.41045 -4.8654,-6.01374 -5.0012,-9.77855 -0.08,-2.22118 -0.3337,-7.52254 -0.5633,-11.78068 -1.1431,-21.19588 -0.4585,-28.92068 3.1769,-35.8433 z m 4.8523,15.03272 c 0.5191,0.10656 0.9376,2.83392 0.93,6.0608 -0.01,3.22688 0.4297,7.96887 0.9719,10.53775 1.2162,5.76348 0.084,12.39301 -2.0413,11.95666 -1.091,-0.22396 -1.2335,-1.45045 -0.5534,-4.76348 0.5037,-2.45394 0.4705,-6.48035 -0.074,-8.94759 -1.1541,-5.23079 -0.6427,-15.13342 0.7666,-14.84414 z"
       id="path3074"
       inkscape:connector-curvature="0"
       sodipodi:nodetypes="cssccscsssccccccccccsccccsssccsccsccscsccsscsscsssccscscssssccccsccscsssccssssscsssssssccscccscscsscsssssssscsssssccsssssssccssssccssccssccscsccsssssssccscsssccssssscscsssccccssscscc" />
  </g>
</svg>
