<?xml version="1.0" encoding="UTF-8" standalone="no"?>
<!-- Created with Inkscape (http://www.inkscape.org/) -->

<svg
   xmlns:dc="http://purl.org/dc/elements/1.1/"
   xmlns:cc="http://creativecommons.org/ns#"
   xmlns:rdf="http://www.w3.org/1999/02/22-rdf-syntax-ns#"
   xmlns:svg="http://www.w3.org/2000/svg"
   xmlns="http://www.w3.org/2000/svg"
   xmlns:sodipodi="http://sodipodi.sourceforge.net/DTD/sodipodi-0.dtd"
   xmlns:inkscape="http://www.inkscape.org/namespaces/inkscape"
   width="541.03271"
   height="131.11581"
   id="svg2"
   version="1.1"
   inkscape:version="0.48.2 r9819"
   sodipodi:docname="lurkur_larettur_skuggalaus.svg">
  <defs
     id="defs4" />
  <sodipodi:namedview
     id="base"
     pagecolor="#ffffff"
     bordercolor="#666666"
     borderopacity="1.0"
     inkscape:pageopacity="0.0"
     inkscape:pageshadow="2"
     inkscape:zoom="2"
     inkscape:cx="222.32118"
     inkscape:cy="71.182165"
     inkscape:document-units="px"
     inkscape:current-layer="layer1"
     showgrid="false"
     showguides="true"
     inkscape:guide-bbox="true"
     fit-margin-top="0"
     fit-margin-left="0"
     fit-margin-right="0"
     fit-margin-bottom="0"
     inkscape:window-width="1920"
     inkscape:window-height="1152"
     inkscape:window-x="0"
     inkscape:window-y="0"
     inkscape:window-maximized="1" />
  <metadata
     id="metadata7">
    <rdf:RDF>
      <cc:Work
         rdf:about="">
        <dc:format>image/svg+xml</dc:format>
        <dc:type
           rdf:resource="http://purl.org/dc/dcmitype/StillImage" />
        <dc:title></dc:title>
      </cc:Work>
    </rdf:RDF>
  </metadata>
  <g
     inkscape:label="Layer 1"
     inkscape:groupmode="layer"
     id="layer1"
     transform="translate(-561.66399,-128.93204)">
    <path
       style="fill:#000000"
       d="m 1069.1767,128.93208 c 17.1416,2.3697 20.5776,9.30628 23.9637,14.5792 2.601,4.05017 7.5215,16.42948 8.6638,23.62758 1.1259,7.09496 1.1466,16.31936 0.2867,25.32244 0.6296,20.8478 -8.5137,38.41572 -13.9588,41.29867 -6.081,2.91854 -61.9324,3.12912 -112.62596,3.24339 -50.69351,0.11426 -75.24704,0.17078 -89.10304,0.0138 5.44569,3.92319 15.98172,7.16202 15.53154,9.82024 -0.93536,5.52312 -6.99387,14.96502 -17.53949,12.92732 -12.65706,-2.44568 -24.64769,-10.89652 -29.14962,-13.2251 -9.14326,-4.72928 -13.59216,-6.71036 -19.68502,-7.96804 -40.56138,0.15446 -204.62924,1.85157 -225.76245,0.556 -17.06992,-0.29988 -24.35719,-1.9431 -28.44322,-3.9665 -3.39546,-1.3712 -12.8195,-13.22259 -15.87752,-19.91942 -1.81519,-4.90741 -4.39185,-22.39192 -3.65542,-29.11956 0.47422,-4.33284 1.97463,-10.5929 3.67292,-15.32444 1.5792,-4.39953 3.09882,-8.71817 3.37708,-9.59677 0.27834,-0.87857 1.07456,-2.09328 1.76971,-2.69928 0.69525,-0.60598 2.15831,-2.81695 3.25126,-4.9133 3.69621,-7.08937 9.65055,-12.97877 16.90149,-16.71733 2.76115,-1.42357 10.43333,-3.23283 17.09828,-3.39495 l 27.98791,-0.68075 c 70.7383,0.1879 181.82956,-1.53933 271.06169,-1.20152 97.61926,-0.25158 140.72746,-0.77951 162.23446,-2.66172 z m -499.50299,60.67653 c -0.88864,10.22282 1.33835,21.04495 5.83021,28.33211 7.65452,12.41768 14.52431,14.38319 48.83935,13.9731 14.83647,-0.17722 24.63711,-0.19397 59.23006,-0.101 36.74986,0.0988 63.83322,-0.23209 65.74069,-0.8032 1.03879,-0.31098 2.8872,-0.36398 4.10758,-0.11777 1.21952,0.25038 5.26372,0.16091 8.9852,-0.18954 3.72148,-0.35045 8.3319,-0.31937 10.24535,0.0691 1.91263,0.39258 3.97943,0.39463 4.59102,0.0137 0.6116,-0.381 2.92018,-0.54974 5.13017,-0.3749 2.20998,0.17485 6.55057,0.2895 9.64575,0.25495 14.48162,-0.16186 19.59813,-0.13581 28.55401,0.14515 5.29984,0.16618 10.13482,-0.002 10.74443,-0.37284 1.44511,-0.8802 5.24788,-0.0716 8.78293,1.86719 1.54976,0.85018 5.72707,2.85704 9.2829,4.45978 l 6.46517,2.91401 5.10741,-2.52661 c 2.8091,-1.38974 5.67029,-2.41118 6.35822,-2.26997 2.92929,0.6013 1.52751,2.18457 -3.80423,4.29672 -4.68336,1.85527 -5.40689,2.44033 -4.0347,3.26265 1.12628,0.67484 2.84153,0.30448 5.25486,-1.13454 3.29082,-1.96227 8.25621,-2.2542 7.88871,-0.46383 -0.0855,0.41621 -1.86874,1.271 -3.96288,1.89945 -2.09412,0.62835 -3.88056,1.49841 -3.96985,1.93344 -0.24179,1.17773 2.45222,3.08203 6.46335,4.56865 3.01416,1.1171 3.61375,1.04469 3.92554,-0.47425 0.42316,-2.06121 3.53692,-2.91361 4.62351,-1.26566 0.45688,0.69282 -0.14051,1.36931 -1.58964,1.80003 -3.3153,0.98548 -2.33567,2.33105 3.09099,4.24533 7.43349,2.62227 10.37938,2.17856 13.12066,-1.97792 1.29138,-1.95792 2.37877,-3.70996 2.41641,-3.89334 0.0374,-0.18351 -2.09223,-1.05046 -4.7331,-1.92657 -5.01027,-1.66231 -13.22836,-7.99492 -13.64521,-10.51471 -0.35091,-2.12119 1.9415,-3.58298 5.66595,-3.6131 1.78894,-0.0145 3.76549,-0.28691 4.39235,-0.60546 0.94479,-0.48013 17.28435,-0.82934 35.88718,-0.76684 2.24433,0.008 8.90725,-0.002 14.80652,-0.0204 5.89924,-0.0187 14.85828,-0.0239 19.90898,-0.0117 20.17466,0.0492 25.58556,-0.16601 26.44729,-1.05173 0.49502,-0.50885 1.09783,-0.62511 1.33959,-0.25851 0.42156,0.63932 8.48839,0.80109 27.74906,0.55628 23.3893,-0.2973 27.5927,-0.42173 30.366,-0.89891 1.6385,-0.28201 4.1613,-0.26335 5.6062,0.0414 1.4445,0.3067 5.8242,0.19377 9.7317,-0.24651 l 7.1044,-0.8005 -2.6191,-3.65298 c -5.3139,-7.41136 -8.1111,-14.35055 -10.0072,-24.82527 -3.2832,-18.13671 -2.8457,-38.90676 1.1346,-53.86788 1.0269,-3.85985 1.6005,-7.06161 1.2747,-7.11512 -0.3258,-0.0534 -2.448,-0.009 -4.7161,0.0996 -9.2062,0.43972 -17.5842,0.40295 -19.9733,-0.0875 -1.3921,-0.28576 -2.9115,-0.2686 -3.3766,0.038 -0.465,0.30665 -5.2807,0.45515 -10.7015,0.32999 -5.4209,-0.12517 -14.2299,-0.18059 -19.57558,-0.12323 -5.34572,0.0574 -14.30074,0.043 -19.90003,-0.0319 -5.5993,-0.0749 -11.81545,-0.004 -13.81366,0.15669 -3.45224,0.27841 -7.03051,0.30218 -29.64503,0.19665 -5.32885,-0.0248 -13.83954,0.0342 -18.91266,0.13116 -11.26489,0.21528 -26.57303,0.29253 -38.83254,0.19594 -5.04505,-0.0398 -18.36999,-0.0259 -29.61097,0.0307 -11.24101,0.0567 -24.56999,0.0902 -29.61999,0.0746 -5.04999,-0.0157 -13.78495,0.0169 -19.41101,0.0723 -5.62606,0.0555 -14.01,0.0565 -18.63099,0.002 -4.62098,-0.0542 -8.49676,0.36413 -8.61282,0.92953 -48.85887,-0.20612 -71.97189,0.64433 -98.5559,-0.1268 -15.95012,0.21559 -40.59614,0.34302 -51.02688,0.26391 -10.37233,-0.0787 -19.29114,0.58104 -21.25007,1.57178 -0.93975,0.47525 -3.16292,1.23494 -4.94032,1.68799 -3.92908,1.00171 -4.54928,1.40821 -9.57591,6.27629 -4.10514,3.97555 -11.54179,14.54335 -12.08021,17.16635 -0.16811,0.81923 -0.85754,1.69152 -1.53211,1.93862 -1.25794,0.46077 -1.6279,2.87131 -3.17891,20.7153 z m 12.74577,-6.57132 c 0.87857,-2.627 2.54825,-6.28518 3.7104,-8.12926 1.9901,-3.15824 1.96327,-2.62423 -0.46254,9.19336 -1.57194,7.65794 -2.3131,13.55535 -1.90235,15.13593 0.37016,1.42433 1.29622,5.70354 2.05799,9.50945 0.76178,3.80591 1.85986,7.79467 2.44023,8.86382 0.58026,1.06921 0.7587,2.45673 0.39642,3.08328 -0.90202,1.56008 -7.03137,-12.53519 -7.92666,-18.22848 -0.94807,-6.02899 -0.30064,-13.48682 1.68651,-19.4281 z m 12.24086,-11.77922 c 2.27424,-6.35072 2.49928,-3.33221 0.50628,6.79121 -2.37816,12.07778 -2.64862,24.1022 -0.7427,32.97343 1.78737,8.31983 2.13915,11.15804 1.36314,10.99874 -0.46345,-0.0951 -2.02717,-4.75657 -3.47499,-10.35861 -2.11678,-8.19063 -2.48865,-11.81626 -1.89818,-18.50974 0.73454,-8.32728 2.32575,-16.53159 4.24645,-21.89503 z m 9.12857,0.34254 c 2.58128,-8.69546 3.20479,-5.3374 1.31154,7.06411 -2.56694,16.8155 -2.99299,24.85983 -1.60677,30.34327 0.62892,2.48767 1.05617,4.94834 0.94943,5.4683 -0.10669,0.51986 0.12239,1.16327 0.50899,1.42985 0.86015,0.59286 3.82486,7.29652 3.63532,8.21986 -0.63326,3.08519 -7.31776,-10.44823 -9.4256,-19.08324 -1.52811,-6.26023 -1.4776,-7.31298 0.85902,-17.882 1.36586,-6.17652 3.06116,-13.17865 3.76807,-15.56015 z m 10.82407,6.98291 c 1.64029,-6.52974 2.07877,-7.39821 3.09462,-6.13055 0.91405,1.14049 0.64296,4.11075 -1.19015,13.04094 -2.35394,11.4675 -3.80177,25.74836 -2.93252,28.92421 0.88723,3.24099 0.40905,8.46392 -0.7154,7.81384 -2.74458,-1.58688 -3.4112,-24.2691 -0.97334,-33.11722 0.44311,-1.60815 1.66571,-6.34721 2.71679,-10.53122 z m 6.50126,11.37582 c 0.31209,-0.49742 1.65775,-3.34346 2.99029,-6.3245 2.39532,-5.35861 4.57019,-7.75493 3.91477,-4.31333 -5.06499,26.59739 -5.59041,30.44808 -4.58038,33.57372 0.58294,1.80406 0.81193,4.37768 0.5088,5.71912 l -0.55069,2.43909 -1.54298,-3.12387 c -2.4733,-5.0076 -3.34177,-12.64778 -2.28702,-20.12103 0.53905,-3.81962 1.23539,-7.35174 1.5479,-7.84907 z m 10.98872,-1.31733 c 2.15925,-6.20332 2.61891,-3.2804 1.17374,7.46346 -0.69272,5.14958 -1.01006,12.55901 -0.70521,16.46529 0.30486,3.90629 0.31158,7.26229 0.0149,7.45792 -0.81961,0.54044 -3.22048,-6.60885 -3.91533,-11.65932 -0.61758,-4.48897 0.63598,-11.69499 3.43195,-19.72734 z m 7.48386,-2.80239 c 1.32731,-3.9696 3.00035,-4.47919 3.00319,-0.91481 10e-4,1.26352 -0.83776,7.40784 -1.86401,13.65406 -1.45203,8.83825 -1.61382,12.6024 -0.72941,16.97362 1.15818,5.7245 0.37048,8.33351 -1.36817,4.53164 -2.93078,-6.40881 -2.43587,-24.09349 0.9584,-34.24451 z m 8.17777,1.93386 c 1.89265,-5.55948 5.54097,-12.46278 7.14571,-13.52091 0.52872,-0.34872 0.33729,0.61518 -0.42538,2.14181 -2.21574,4.43505 -7.01194,29.0356 -6.23772,31.99461 0.85716,3.27659 2.78627,12.85696 2.68661,13.34244 -0.29735,1.44849 -2.04325,-0.61359 -3.00976,-3.55491 -3.48587,-10.60799 -3.53767,-20.47954 -0.15948,-30.40304 z m 7.44015,7.65235 c 0.48176,0.0988 1.1,-0.80781 1.37381,-2.01491 1.31412,-5.7937 5.31505,-18.89316 6.52806,-21.37391 1.06078,-2.16941 1.10514,-0.80952 0.20108,6.16638 -2.84632,21.96254 -3.78016,31.39952 -3.28663,33.213 0.29198,1.07313 1.04403,4.27444 1.67108,7.11391 1.04809,4.74599 1.00528,5.10726 -0.53032,4.47385 -2.27393,-0.938 -5.60675,-14.05956 -5.23164,-20.59757 0.16536,-2.8814 0.0872,-4.47873 -0.17348,-3.54968 -0.74057,2.63848 -2.49408,1.58313 -1.93059,-1.16194 0.27649,-1.34691 0.89687,-2.36802 1.37863,-2.26913 z m -0.39314,19.31546 c 0.21178,0.0434 0.50295,0.79232 0.6472,1.66413 0.14424,0.87181 -0.16464,1.49748 -0.68659,1.39034 -0.52183,-0.10714 -0.8131,-0.85598 -0.6472,-1.66413 0.16585,-0.80816 0.4749,-1.4338 0.68659,-1.39034 z m 16.62003,-36.65679 c 0.98042,-1.90425 2.08616,-3.39995 2.45723,-3.32379 0.37096,0.0762 -0.18304,5.58987 -1.2312,12.25269 -2.09552,13.32133 -2.26011,23.08036 -0.51745,30.69398 1.0844,4.73822 0.48436,7.53805 -1.26231,5.8909 -1.46753,-1.38376 -3.8351,-11.73342 -4.32175,-18.89178 -0.5258,-7.73552 1.86066,-20.7659 4.87567,-26.62195 z m 8.83163,5.31909 c 1.00485,-2.77819 2.08133,-5.21898 2.39229,-5.42395 0.31087,-0.20497 -0.11147,4.44703 -0.93857,10.33783 -2.14497,15.27692 -2.19279,21.99992 -0.20707,29.09686 1.83678,6.56431 1.11106,8.05126 -1.34467,2.75518 -4.94603,-10.66649 -4.91333,-22.9106 0.098,-36.76592 z m 15.13987,-2.18494 c -0.1125,4.18792 -0.92684,13.64197 -1.80961,21.00904 -0.88289,7.36704 -1.25265,13.92922 -0.82182,14.5826 0.43083,0.65337 0.46663,2.73081 0.0795,4.61649 -0.95781,4.6661 -1.86489,2.72864 -2.85522,-6.09869 -0.70055,-6.2441 -0.35006,-9.83191 2.39548,-24.51912 3.16133,-16.91113 3.21268,-17.07475 3.01162,-9.59032 z m 8.54312,-1.59882 c 0.28339,2.42523 -0.19609,10.36601 -1.06549,17.64618 -0.97769,8.18702 -1.26075,15.57061 -0.74195,19.35504 0.46129,3.36528 0.60965,6.26963 0.32964,6.4543 -1.03299,0.6811 -2.92252,-3.90378 -3.94379,-9.56956 -0.90166,-5.00228 -0.62786,-8.13602 1.92771,-22.06302 2.74034,-14.93389 3.01987,-15.8798 3.49388,-11.82294 z m 9.02566,-1.94077 c 2.40925,-7.55282 2.86809,-4.49827 1.32751,8.83702 -2.04414,17.69407 -2.32257,25.36731 -1.11234,30.65495 1.76759,7.72277 0.0239,8.22073 -3.15699,0.90152 -3.19951,-7.36212 -1.89911,-25.21753 2.94182,-40.39349 z m 7.93545,6.05144 c 1.00364,-3.25691 2.14284,-6.13105 2.5315,-6.38682 0.38867,-0.25578 0.0244,4.34035 -0.80954,10.21363 -1.54074,10.85153 -2.07763,28.98924 -0.96855,32.72035 0.78329,2.63492 0.45263,4.1953 -0.83313,3.93138 -2.43436,-0.49972 -3.72691,-17.04668 -2.30973,-29.56836 0.31053,-2.7436 1.38572,-7.65319 2.38942,-10.91019 z m 8.952,6.60271 c 1.98045,-7.59612 2.41874,-8.57693 2.50709,-5.61048 0.0589,1.97724 -0.16289,6.06616 -0.49284,9.0865 -0.32994,3.02034 -0.1009,6.35225 0.50897,7.40427 0.83184,1.43487 0.78042,2.03305 -0.20577,2.39433 -1.49654,0.54818 -2.84696,10.45631 -1.72997,12.69299 0.36896,0.73878 0.71106,2.60253 0.7602,4.14176 0.14432,4.51901 -2.19249,2.00509 -3.54599,-3.81484 -1.50436,-6.46851 -0.8122,-14.74754 2.19831,-26.29453 z m 9.29307,-1.66539 c 0.7424,-2.65494 1.80797,-5.13309 2.36793,-5.50694 1.11443,-0.7441 0.90106,3.6875 -0.77752,16.14809 -0.59645,4.4277 -0.91191,11.86293 -0.70102,16.52271 0.21091,4.65978 0.10892,8.65344 -0.22659,8.8746 -1.12044,0.73879 -2.38665,-5.82458 -2.71496,-14.07306 -0.37623,-9.45191 0.16098,-15.20213 2.05216,-21.9654 z m 12.9552,-1.9345 c 0.92307,0.18947 0.60623,5.0676 -1.17234,18.04953 -0.70455,5.14256 -1.10108,10.45891 -0.88116,11.81411 0.64043,3.94699 -1.04107,2.53209 -2.27326,-1.91277 -0.91133,-3.28749 -0.68219,-6.34569 1.20526,-16.0862 1.28178,-6.61487 2.68645,-11.95397 3.1215,-11.86467 z m 8.02855,-0.64889 c 0.68991,-2.52535 1.65107,-4.51013 2.1359,-4.41061 1.1547,0.23701 0.90103,4.38229 -1.07969,17.64327 -0.94899,6.35344 -1.3423,13.29432 -0.94351,16.65035 0.75767,6.37599 0.49261,7.25473 -1.34683,4.46508 -3.20921,-4.8671 -2.66244,-20.08508 1.23413,-34.34809 z m 9.60564,-4.40856 c 2.63795,-6.63958 3.03798,-7.25103 4.09274,-6.25653 0.60452,0.57 0.31667,2.78546 -0.81568,6.27761 -3.20272,9.87713 -4.34547,31.37524 -2.11328,39.75668 1.21618,4.56662 0.79084,5.70463 -1.14539,3.06447 -2.45374,-3.34583 -4.853,-14.44251 -4.67648,-21.62889 0.16855,-6.86145 1.66674,-13.68436 4.65809,-21.21334 z m 10.97694,3.27409 c 0.87382,1.35528 0.45754,13.94339 -0.64357,19.46067 -0.40983,2.05363 -0.73338,6.60739 -0.71896,10.11952 0.0144,3.51214 -0.25825,6.3273 -0.60593,6.25594 -0.88647,-0.182 -2.75813,-7.79838 -2.50981,-10.21327 1.14954,-11.17908 3.84549,-26.60424 4.4783,-25.62286 z m 8.85869,5.39141 c 0.80815,0.16585 1.36581,0.85458 1.23924,1.53044 -0.93357,4.9853 -1.47183,22.12944 -0.80002,25.48169 1.23476,6.16142 0.63239,7.77394 -1.67934,4.49544 -2.89587,-4.10698 -3.71515,-14.82717 -1.83365,-23.99316 1.29209,-6.29455 1.89044,-7.75732 3.07377,-7.51441 z m 7.59834,5.64312 c 0.6659,-1.26699 1.63923,-4.16802 2.16294,-6.44676 0.52371,-2.27874 1.39303,-4.05266 1.9318,-3.94208 0.57387,0.11784 0.29261,3.54811 -0.67914,8.28261 -1.63396,7.96085 -2.30966,20.6666 -1.39789,26.2856 0.25637,1.57992 0.0869,2.79476 -0.3766,2.69962 -2.14815,-0.44093 -4.25403,-11.87137 -3.02977,-16.44512 0.28497,-1.06443 0.44151,-3.32922 0.34798,-5.03282 -0.0935,-1.70361 0.37474,-4.13408 1.0406,-5.40108 z m 12.83972,-13.698 c 0.84078,2.5672 1.02085,14.33486 0.32905,21.5054 -0.34527,3.57868 -0.13077,8.57872 0.47664,11.1113 0.60743,2.53246 0.84669,4.77446 0.53169,4.98216 -2.41346,1.59142 -5.63631,-7.96124 -5.20351,-15.42332 0.42511,-7.32922 3.30966,-23.87463 3.86608,-22.17555 z m 9.09943,0.25143 c 0.53388,0.50343 0.79057,1.79278 0.5704,2.86532 -0.22017,1.07243 -0.023,3.28812 0.43806,4.92365 0.46111,1.63541 0.4762,6.32442 0.0336,10.41987 -0.44262,4.09545 -0.57931,7.95193 -0.30375,8.56996 0.27555,0.61803 0.6262,3.44631 0.7792,6.28505 0.15301,2.83875 0.59147,5.79989 0.97436,6.58033 0.4888,0.99633 0.24657,1.32668 -0.81326,1.10913 -3.48886,-0.71622 -5.44766,-13.25474 -4.03662,-25.83944 0.43077,-3.84186 0.91914,-8.9751 1.08528,-11.40717 0.2162,-3.16487 0.57803,-4.16177 1.27275,-3.5067 z m 11.8244,-1.64498 c 0.68835,-0.25213 0.6605,2.30867 -0.25022,22.99169 -0.23275,5.28617 -0.05,11.13538 0.40605,12.99824 0.45606,1.86295 0.67071,4.15932 0.47698,5.10313 -0.29691,1.44655 -0.59046,1.29238 -1.86811,-0.98116 -0.83369,-1.48355 -1.55286,-3.88348 -1.59812,-5.33329 -0.0453,-1.44981 -0.33407,-3.14705 -0.64178,-3.77169 -1.01416,-2.05857 2.17703,-30.53144 3.4752,-31.00692 z m 8.30762,1.75942 c 0.42975,0.9396 0.27591,5.39527 -0.34191,9.90159 -1.36548,9.95996 -1.39357,23.61328 -0.0549,26.70541 1.24116,2.86714 1.03496,3.95683 -0.55619,2.9395 -2.12503,-1.35875 -4.27028,-10.6952 -4.03981,-17.58192 0.28717,-8.58122 3.88165,-24.39403 4.99286,-21.96456 z m 7.57762,7.19045 c 0.0774,3.10398 0.17369,9.29825 0.21394,13.76508 0.0403,4.46682 0.72548,10.51024 1.52272,13.42988 1.50237,5.50197 0.90912,7.8482 -1.01509,4.01459 -3.8731,-7.7163 -4.65309,-19.69899 -2.04924,-31.48207 l 1.18695,-5.37104 0.14076,5.64357 z m 7.72924,-9.64276 c 0.45894,0.0942 0.85609,1.20934 0.88255,2.47807 0.0265,1.26874 0.12151,4.38908 0.21121,6.9341 0.0897,2.54502 0.0805,8.05573 -0.0204,12.24602 -0.10094,4.19028 0.34685,9.65779 0.9951,12.14995 1.18693,4.56306 1.24579,6.68535 0.17939,6.46644 -0.84346,-0.17309 -3.37342,-5.1109 -3.21494,-6.27461 0.27195,-1.99669 -1.92054,-9.3132 -2.49669,-8.3317 -0.32665,0.55649 0.0955,-3.01344 0.93812,-7.9332 0.84259,-4.91965 1.56784,-10.96122 1.61164,-13.42566 0.0438,-2.46432 0.4551,-4.40362 0.914,-4.30942 z m -5.48095,49.77647 c 2.79976,-1.48904 9.66054,-2.22799 10.79079,-1.16225 1.08707,1.02502 -6.1334,3.79042 -10.37865,3.97497 -3.19743,0.13901 -3.39731,-1.22504 -0.41214,-2.81272 z m 12.90774,-51.31504 c 0.47741,0.098 0.87856,1.44364 0.89144,2.99033 0.0129,1.54668 0.28912,4.71953 0.61382,7.05084 0.32472,2.33131 0.25273,5.88369 -0.15996,7.89417 -0.94713,4.61409 -0.31221,16.13987 0.9792,17.77576 0.53653,0.67956 0.95646,2.83299 0.93318,4.78539 l -0.0423,3.54969 -2.58719,-4.38071 c -2.56824,-4.34863 -3.28566,-9.25276 -3.19132,-21.81629 0.0589,-7.84601 1.52594,-18.06208 2.56313,-17.84918 z m -7.04315,55.07079 c 5.68071,-2.4853 10.60318,-3.16601 10.24411,-1.41677 -0.18912,0.92108 -9.61016,4.2397 -11.14279,3.92509 -1.26564,-0.25982 -0.7126,-1.80342 0.89868,-2.50832 z M 871.371,179.05778 c 0.33046,2.3137 0.49718,7.40114 0.37049,11.30541 -0.12669,3.90426 -0.13712,8.49595 -0.0232,10.20374 0.11394,1.7078 0.24774,5.53007 0.29729,8.49407 0.0496,2.9639 0.67527,7.68618 1.39048,10.49393 1.44492,5.6724 1.05241,6.95834 -1.06435,3.48691 -4.2947,-7.04323 -5.41457,-21.88873 -2.93259,-38.87581 1.31038,-8.9684 1.38338,-9.1585 1.96186,-5.10825 z m 9.73062,5.05996 c 0.90088,-2.01113 0.9285,0.59423 0.0976,9.20769 -1.54755,16.04341 -1.55152,22.16708 -0.0173,26.6378 0.70782,2.06246 0.80641,3.63928 0.22003,3.51892 -1.62196,-0.33291 -4.49904,-8.30437 -4.9988,-13.84993 -0.45576,-5.05724 2.34317,-20.25678 4.6984,-25.51448 z m -10.90193,59.80711 c 2.31612,-1.1363 5.00602,-1.27065 5.37311,-0.26847 0.36295,0.99082 -4.41438,3.24433 -6.13094,2.89197 -1.394,-0.28611 -0.96262,-1.77951 0.75783,-2.6235 z m 17.93692,-53.32248 c 0.88965,-0.32403 0.92639,8.5545 0.078,18.84702 -0.38156,4.62903 -0.3176,9.12114 0.14213,9.98247 0.64029,1.19965 0.50811,1.49878 -0.56491,1.27853 -2.71944,-0.55821 -3.51221,-8.85949 -1.87418,-19.62469 0.85719,-5.6335 1.85573,-10.35108 2.21898,-10.48333 z m -6.45532,59.13897 c 1.23598,-0.81502 5.38104,0.30933 5.15738,1.39891 -0.11064,0.53876 -1.5235,0.70812 -3.1398,0.37634 -3.04343,-0.62468 -3.35143,-0.89579 -2.01758,-1.77525 z m 15.14045,-62.39672 c 0.15322,1.71585 -0.0202,8.3413 -0.38539,14.72322 -0.36518,6.38192 -0.42851,13.47138 -0.14077,15.75447 0.5389,4.2755 -0.01,5.7698 -1.36422,3.71558 -2.28258,-3.46168 -2.47298,-14.00348 -0.46039,-25.48816 1.4103,-8.05003 2.16109,-10.82894 2.35077,-8.70511 z m 7.52158,-3.04987 c 0.95232,0.19544 1.03933,10.6737 0.20806,25.05355 -0.22454,3.88418 -0.28516,8.58041 -0.1347,10.43607 0.33935,4.18552 -1.41064,4.26853 -2.01991,0.0958 -0.23242,-1.59174 -0.65255,-3.86005 -0.9336,-5.04068 -1.52736,-6.41586 0.78832,-30.97413 2.88015,-30.54474 z m 7.77421,-7.16666 c 1.2213,-2.90189 1.59361,5.58144 0.7325,16.68998 -0.87132,11.24008 -0.772,21.55207 0.25896,26.88642 0.92181,4.76967 -0.29538,5.37959 -2.42101,1.21306 -2.31853,-4.54452 -2.71288,-19.63729 -0.84907,-32.49656 0.83638,-5.77058 1.86175,-11.30239 2.27862,-12.2929 z m 7.29114,15.36338 c 1.15372,0.23684 1.5097,1.80544 1.5024,6.62053 -0.004,2.42294 0.031,8.009 0.077,12.41331 0.0928,8.88412 -0.63436,10.71347 -2.01764,5.07588 -1.05273,-4.29062 -0.68827,-24.34096 0.43824,-24.10972 z m 7.66541,-11.69757 c 0.46444,0.63995 0.47964,6.66436 0.058,22.98105 -0.1443,5.58505 0.0963,11.95095 0.53461,14.14643 0.83155,4.16477 0.47013,4.83295 -1.22426,2.26336 -0.96977,-1.47074 -1.24258,-3.07149 -2.35105,-13.79459 -0.49634,-4.80168 2.07289,-26.85 2.98267,-25.59625 z m 8.0799,-3.24377 c 0.75153,1.1397 1.22318,11.03984 1.04626,21.96113 -0.0906,5.59608 0.14251,13.10891 0.51814,16.69518 0.73988,7.06406 -0.0478,8.35658 -1.65884,2.72205 -1.85291,-6.48055 -2.6509,-15.02094 -2.11515,-22.63768 0.86307,-12.27048 1.71446,-19.49158 2.20959,-18.74068 z m 9.44717,-0.30348 c 1.32613,0.26196 1.59223,8.22588 0.59627,17.77127 -0.80398,7.70542 -0.84573,14.19814 -0.12064,18.76267 1.23311,7.7625 0.84395,9.19163 -1.21484,4.46144 -4.17585,-9.59433 -4.65519,-18.9892 -1.62722,-31.89249 1.18058,-5.03097 2.24546,-9.12721 2.36643,-9.10289 z m 6.39743,7.43739 c 1.00452,0.20616 1.94132,7.89583 1.56999,12.88711 -0.21359,2.8712 -0.10961,7.90613 0.23106,11.18878 0.34068,3.28266 0.54818,7.68939 0.46111,9.79274 l -0.15829,3.82428 -1.5283,-2.6923 c -1.56815,-2.76265 -2.36527,-8.73195 -1.64264,-12.30155 0.22379,-1.10508 0.085,-2.5117 -0.30819,-3.12581 -1.05621,-1.64957 0.21981,-19.81043 1.37526,-19.57325 z m 8.55699,0.16315 c 0.42413,0.39996 0.49766,3.54293 0.16339,6.98451 -0.82686,8.51312 -0.69668,25.41277 0.20636,26.79048 0.98009,1.49532 0.46663,3.71982 -0.79866,3.46009 -0.55568,-0.11403 -1.1235,-1.03455 -1.26183,-2.04551 -0.13833,-1.01096 -0.66515,-3.76055 -1.17069,-6.1102 -0.50556,-2.34965 -0.86419,-6.98657 -0.79693,-10.3044 0.14786,-7.29651 2.58218,-19.78968 3.65836,-18.77497 z m 7.98111,-3.91432 c 1.13475,0.23288 1.32855,2.39996 0.79052,8.8395 -0.2306,2.76001 -0.35403,6.63942 -0.27428,8.62094 0.0798,1.9815 0.0781,6.40134 -0.004,9.82177 -0.0818,3.42051 0.26424,7.76942 0.7689,9.6643 1.02275,3.84029 0.20706,5.17146 -1.70608,2.78431 -2.94821,-3.67866 -3.64257,-12.34702 -2.14452,-26.77193 1.30746,-12.58963 1.42712,-13.1933 2.56911,-12.95889 z m 7.99704,-2.2239 c 0.53674,1.07224 0.72344,5.93408 0.41487,10.8041 -0.73552,11.6088 -0.44647,27.76379 0.50023,27.95812 0.4112,0.0844 0.67028,1.51573 0.57572,3.18073 -0.10353,1.82322 -0.60715,2.93792 -1.26698,2.80248 -1.52061,-0.3121 -4.35751,-11.2219 -4.12558,-15.86552 0.10514,-2.10525 -0.008,-4.55783 -0.25184,-5.45005 -0.24366,-0.89221 0.37164,-6.96758 1.36734,-13.50081 1.53431,-10.0674 1.95913,-11.5813 2.78624,-9.92905 z m 5.56889,5.4352 c 0.72438,0.68311 1.62946,8.52293 2.42419,20.99844 0.21744,3.41344 0.80089,8.5953 1.29655,11.5152 1.01717,5.99222 0.98087,6.81717 -0.2885,6.55661 -3.2707,-0.67135 -6.4342,-27.38511 -4.49883,-37.98955 0.17873,-0.97906 0.65865,-1.46539 1.06659,-1.0807 z m 8.39759,-11.61649 c 0.50009,0.47148 0.76327,4.15626 0.58487,8.18824 -0.64332,14.53889 -0.44412,27.82522 0.49823,33.23102 0.52841,3.03127 0.60963,6.03393 0.1805,6.67258 -0.49748,0.7404 -0.85912,0.31264 -0.9978,-1.18034 -0.11965,-1.28787 -0.55345,-2.41052 -0.96402,-2.49481 -0.41057,-0.0843 -0.99119,-1.69645 -1.29026,-3.58261 -0.29907,-1.88616 -0.72234,-4.3848 -0.94057,-5.55254 -0.84733,-4.53388 -0.78066,-5.90294 1.47206,-30.22483 0.37705,-4.07083 0.83114,-5.64681 1.45699,-5.05671 z m 7.55309,8.90412 c 1.04752,1.57745 1.48799,10.32253 1.00066,19.86719 -0.2075,4.06388 0.32677,10.49006 1.18727,14.28041 0.86048,3.79034 1.23428,6.82376 0.83058,6.7409 -1.95878,-0.40206 -5.88276,-12.45622 -6.23393,-19.15026 -0.32613,-6.21685 2.19666,-23.27243 3.21542,-21.73824 z m 7.21491,7.04097 c 0.3937,0.0808 1.1525,7.17958 2.0641,19.30942 0.2142,2.85133 0.7801,7.03395 1.2575,9.2947 1.2857,6.08941 -1.1182,4.10328 -3.1519,-2.60416 -1.7437,-5.75098 -1.8782,-26.35067 -0.1697,-25.99996 z m 7.5669,2.57412 c 0.8945,0.18361 1.501,1.96648 1.5869,4.66435 0.077,2.40194 0.2439,7.60436 0.3721,11.56094 0.1281,3.95658 0.5401,7.69325 0.9156,8.30372 0.3755,0.61047 0.554,1.73697 0.3967,2.50329 -0.2297,1.11887 -0.523,1.09788 -1.4882,-0.10662 -2.1203,-2.64559 -3.0005,-8.01198 -2.7411,-16.71171 0.1391,-4.66592 0.086,-8.93973 -0.1184,-9.49729 -0.2043,-0.55766 0.2802,-0.88014 1.0764,-0.71668 z m 9.0975,-7.32022 c 0.7941,0.16297 1.3832,8.49096 1.4771,20.88233 0.028,3.74449 0.5758,8.88148 1.2164,11.41555 0.6406,2.53407 1.0802,5.01932 0.9768,5.52293 -0.4403,2.14537 -2.8818,-2.78751 -4.3594,-8.80818 -2.1437,-8.73518 -1.6507,-29.49293 0.6891,-29.01263 z m 8.9775,-4.28229 c 0.4886,0.10027 0.7114,3.93595 0.4951,8.52366 -0.4411,9.35722 0.1318,23.44863 0.9933,24.43122 1.2285,1.40135 3.0365,9.82882 2.0658,9.62957 -2.3555,-0.48347 -6.3064,-11.14746 -6.8568,-18.50714 -0.5002,-6.6888 1.9237,-24.36035 3.3026,-24.07731 z m 6.7647,8.74474 c 1.2828,0.7417 2.0461,6.50439 1.9721,14.88762 -0.024,2.74224 0.5229,7.11077 1.2158,9.70795 0.7893,2.95844 0.8439,4.99625 0.1462,5.45626 -1.4505,0.95646 -3.3786,-0.89403 -3.2521,-3.12128 0.054,-0.96005 -0.3009,-2.13552 -0.7898,-2.61206 -1.0219,-0.99613 -1.5257,-11.70211 -0.9237,-19.62671 0.3252,-4.28023 0.663,-5.25174 1.6315,-4.69178 z m 8.2681,-7.39919 c 1.0082,1.34327 1.5902,4.56602 1.5317,8.48122 -0.188,12.57035 2.3071,23.38748 7.1999,31.2147 1.4964,2.39377 1.7676,3.67161 0.9006,4.24326 -0.8669,0.57165 -2.2335,-0.76178 -4.5379,-4.42762 -3.8946,-6.19556 -5.8067,-11.37951 -6.3045,-17.0923 -0.1993,-2.28677 -0.5584,-5.11679 -0.7981,-6.28893 -0.2397,-1.17214 -0.2162,-4.61268 0.052,-7.64566 0.2684,-3.03298 0.4524,-6.67026 0.409,-8.08286 -0.077,-2.50988 -0.042,-2.51899 1.5471,-0.40181 z m 13.9622,-11.64995 c -0.027,5.77317 0.1594,11.25869 0.4132,12.19017 0.2539,0.93138 0.5383,4.00617 0.6321,6.83275 0.094,2.82658 0.6079,7.06657 1.1425,9.42219 2.6082,11.49094 3.2313,14.46578 3.1317,14.95087 -0.1017,0.49527 3.1407,6.37076 6.1387,11.12355 1.0084,1.59872 2.818,2.43864 7.1857,3.3352 5.0875,1.04432 6.2237,0.9224 8.8411,-0.94881 1.7572,-1.25624 3.625,-3.8432 4.5014,-6.2345 0.824,-2.24805 1.9375,-4.2483 2.4746,-4.44503 1.7782,-0.65133 3.6395,-13.27419 4.0073,-27.178 0.3658,-13.82248 -0.2254,-21.02771 -2.0759,-25.30221 -0.554,-1.27995 -0.874,-2.97676 -0.7111,-3.77071 0.3573,-1.7407 -2.5837,-9.03485 -5.7956,-14.37415 -1.7322,-2.87942 -3.9854,-4.72692 -8.7195,-7.14933 -3.5111,-1.79649 -7.3311,-3.46091 -8.489,-3.6986 -6.8572,-1.40756 -12.5815,14.50807 -12.6772,35.24661 z m 8.3893,-20.81404 c 1.8971,-3.51072 6.4671,-6.57213 10.0427,-6.72763 6.9172,-0.30073 15.6051,14.5634 16.2659,27.82923 0.9987,20.04921 -0.3869,35.75315 -3.8689,43.84996 -3.0631,7.12257 -4.3471,8.48878 -9.5394,10.14954 -4.6617,1.49109 -5.2714,1.51019 -5.8791,0.1838 -0.2372,-0.51777 -1.8963,-2.10858 -3.6869,-3.53525 -4.4828,-3.57165 -7.4848,-15.82435 -8.1959,-33.45177 -0.5904,-14.6333 1.662,-32.377 4.8616,-38.29788 z m -1.5015,24.19222 c -0.4337,14.5265 0.038,24.30278 1.4858,30.8081 3.0541,13.72126 3.37,14.39291 8.0261,17.06278 3.4354,1.96982 3.7131,1.96638 6.362,-0.0809 1.5233,-1.17733 3.6618,-3.90258 4.7522,-6.05603 2.3755,-4.69186 4.734,-20.15943 4.337,-28.44295 -0.1494,-3.11876 -0.1925,-7.60412 -0.096,-9.9676 0.097,-2.36339 -0.1752,-4.62838 -0.6047,-5.03341 -0.4295,-0.40493 -0.6293,-1.47447 -0.4441,-2.37665 1.1927,-5.81055 -7.0233,-23.14964 -11.3467,-23.94626 -7.0371,-1.29657 -11.9243,9.68846 -12.472,28.03292 z m 8.6812,-14.2964 c 0.865,-1.64721 2.001,-2.90703 2.5243,-2.79959 1.1443,0.23486 0.3723,4.0909 -1.9294,9.63736 -1.2497,3.01123 -1.5901,5.9995 -1.307,11.4715 0.2106,4.06978 0.1017,8.80775 -0.242,10.5289 -0.3441,1.72096 -0.2919,3.44323 0.1151,3.8269 0.407,0.38377 0.688,3.56945 0.6246,7.07917 -0.139,7.68412 1.1007,14.28755 2.7454,14.62517 4.2661,0.87571 8.1705,-15.26089 6.6694,-27.56392 -0.5165,-4.23352 -0.706,-10.36128 -0.421,-13.61739 0.5397,-6.16775 -0.1699,-9.25112 -3.367,-14.62924 -1.7922,-3.01473 -1.7882,-3.17438 0.071,-2.79279 1.0844,0.22259 2.6969,1.58719 3.5832,3.03243 2.1221,3.4604 3.8672,12.20162 3.1415,15.73681 -0.8248,4.01783 -0.6526,13.12782 0.3142,16.62627 0.5364,1.9409 0.1436,6.42499 -1.1239,12.82853 -1.867,9.43254 -2.0779,9.92295 -5.0402,11.71867 -1.7004,1.03074 -3.4871,1.79295 -3.9703,1.69375 -1.9996,-0.41045 -4.8654,-6.01374 -5.0012,-9.77855 -0.08,-2.22118 -0.3337,-7.52254 -0.5633,-11.78068 -1.1431,-21.19588 -0.4585,-28.92068 3.1769,-35.8433 z m 4.8523,15.03272 c 0.5191,0.10656 0.9376,2.83392 0.93,6.0608 -0.01,3.22688 0.4297,7.96887 0.9719,10.53775 1.2162,5.76348 0.084,12.39301 -2.0413,11.95666 -1.091,-0.22396 -1.2335,-1.45045 -0.5534,-4.76348 0.5037,-2.45394 0.4705,-6.48035 -0.074,-8.94759 -1.1541,-5.23079 -0.6427,-15.13342 0.7666,-14.84414 z"
       id="path3074"
       inkscape:connector-curvature="0"
       sodipodi:nodetypes="cssccscsssccccccccccsccccsssccsccsccscsccsscsscsssccscscssssccccsccscsssccssssscsssssssccscccscscscssccscsccsssscccscssccccscccccscccccsccsccssssccsssccsssscscsssscccssssssscsssscccscssssscssssscsccssssssssscscscccssssccsssscsscsssscssssssssssssssssccssssssssssssssssscccsscssscccssscccsccscsssccccccscccccssccccsssssscsssssssssssssscssscsscsssssssssccsssccsccscssccsscsscsscsssssssssssscsscscsscscscsssccsssscccsscccsscscsssscccsssssscssssssssscsssssscsscsscssssccsssssssccscsscssssssscssscssscsscscsssscscssssssccsssssscsccccsssssssccssssccssccssccscsccsssssssccscsssccssssscscsssccccssscscc" />
  </g>
</svg>
