<?xml version="1.0" encoding="UTF-8" standalone="no"?>
<!-- Created with Inkscape (http://www.inkscape.org/) -->

<svg
   xmlns:dc="http://purl.org/dc/elements/1.1/"
   xmlns:cc="http://creativecommons.org/ns#"
   xmlns:rdf="http://www.w3.org/1999/02/22-rdf-syntax-ns#"
   xmlns:svg="http://www.w3.org/2000/svg"
   xmlns="http://www.w3.org/2000/svg"
   xmlns:sodipodi="http://sodipodi.sourceforge.net/DTD/sodipodi-0.dtd"
   xmlns:inkscape="http://www.inkscape.org/namespaces/inkscape"
   width="136.92633"
   height="545.39001"
   id="svg2"
   version="1.1"
   inkscape:version="0.48.2 r9819"
   sodipodi:docname="lurkur_lodrettur_halffullur.svg">
  <defs
     id="defs4" />
  <sodipodi:namedview
     id="base"
     pagecolor="#ffffff"
     bordercolor="#666666"
     borderopacity="1.0"
     inkscape:pageopacity="0.0"
     inkscape:pageshadow="2"
     inkscape:zoom="1.5887245"
     inkscape:cx="23.055521"
     inkscape:cy="267.25844"
     inkscape:document-units="px"
     inkscape:current-layer="layer1"
     showgrid="false"
     showguides="true"
     inkscape:guide-bbox="true"
     fit-margin-top="0"
     fit-margin-left="0"
     fit-margin-right="0"
     fit-margin-bottom="0"
     inkscape:window-width="815"
     inkscape:window-height="1153"
     inkscape:window-x="69"
     inkscape:window-y="0"
     inkscape:window-maximized="0" />
  <metadata
     id="metadata7">
    <rdf:RDF>
      <cc:Work
         rdf:about="">
        <dc:format>image/svg+xml</dc:format>
        <dc:type
           rdf:resource="http://purl.org/dc/dcmitype/StillImage" />
        <dc:title></dc:title>
      </cc:Work>
    </rdf:RDF>
  </metadata>
  <g
     inkscape:label="Layer 1"
     inkscape:groupmode="layer"
     id="layer1"
     transform="translate(-1152.0906,24.125449)">
    <path
       sodipodi:nodetypes="cccsssscccccccccsssscccscscscsccsscssssccc"
       inkscape:connector-curvature="0"
       id="path4754"
       d="m 1284.6042,415.81114 c -1.4184,18.3359 0.5032,57.16497 -0.9105,70.78502 -5.2652,8.72526 -6.6466,10.73239 -17.3243,18.56233 -11.5491,7.60225 -20.8348,10.45671 -33.0831,10.04058 -6.4095,-0.21775 -13.0619,-1.58486 -16.5766,-2.75645 -8.31,-2.76997 -19.1098,-9.17437 -24.0849,-14.28262 -8.2168,-8.43653 -8.1492,-7.93349 -8.7745,-65.27035 -0.2969,-27.2195 -0.5813,-50.1515 -0.6319,-50.96 -0.051,-0.8085 0.1183,-5.21498 0.3755,-9.79207 0.2917,-5.19453 0.06,-8.98078 -0.6178,-10.07489 -0.8057,-1.30123 -0.7857,-1.9395 0.077,-2.47728 1.6324,-1.01704 1.5895,-62.90888 -0.043,-62.93078 -0.7661,-0.0103 -0.7915,-0.24211 -0.08,-0.735 1.3702,-0.94986 1.715,-8.72843 0.5598,-12.62584 -0.598,-2.01767 -0.5667,-3.4337 0.09,-4.09075 0.6865,-0.68654 0.672,-1.95985 -0.046,-4.01916 -0.6323,-1.81361 -0.6808,-3.01424 -0.1218,-3.01424 0.5379,0 0.935,-5.46668 0.9432,-12.985 0.015,-13.45276 0.1094,-12.94077 -6.1134,-33.075 -1.0828,-3.5035 -3.0469,-8.7955 -4.3647,-11.76 -3.2647,-7.34398 -10.4819,-21.93755 -11.1471,-22.54 -0.2976,-0.2695 -1.312,-2.0335 -2.2544,-3.92 -0.9423,-1.8865 -2.9794,-5.4145 -4.5269,-7.84 -4.2851,-6.71639 -3.9796,-7.66304 4.5018,-13.95095 7.1871,-5.32833 7.5576,-5.47994 9.8,-4.01065 1.2818,0.83986 2.3305,1.88579 2.3305,2.32431 0,0.43851 0.5727,1.38004 1.2728,2.09229 0.6999,0.71225 2.7655,3.941 4.5902,7.175 3.5933,6.36877 4.999,7.82316 5.9981,6.20648 0.3536,-0.57202 0.7194,-40.33215 0.8131,-88.355832 0.094,-48.02368 0.527,-87.7736314 0.963,-88.3332214 0.4359,-0.55958 1.079,-2.21695001 1.429,-3.68303999 1.0105,-4.23256001 7.3886,-10.07919061 14.5058,-13.29727061 8.9434,-4.04376 24.2954,-6.37941 33.638,-5.11769 3.773,0.50954 9.506,0.94894 12.74,0.97644 4.3628,0.037 7.9612,0.90728 13.9453,3.37241 4.436,1.82732 8.7575,4.01453 9.6034,4.8604405 0.846,0.84592 2.1119,1.8785201 2.8131,2.2946601 2.0154,1.19594 8.4282,10.62216 8.4282,12.38866 0,1.36489 1.7822,0.82772 3.728,12.1325094 1.6117,122.625564 -2.3018,200.682944 -4.7077,254.229014 -1.2015,32.89745 2.6082,103.17095 2.2628,144.45794 z"
       style="fill:#ffffff" />
    <path
       style="fill:#000000"
       d="m 1286.1362,419.80816 c -1.4473,18.7101 0.5135,58.3316 -0.929,72.22961 -5.3727,8.90333 -6.7823,10.95142 -17.6779,18.94116 -11.7848,7.7574 -21.26,10.67011 -33.7583,10.24549 -6.5403,-0.2222 -13.3284,-1.61721 -16.9149,-2.81271 -8.4795,-2.8265 -19.4997,-9.3616 -24.5764,-14.5741 -8.3845,-8.6087 -8.3155,-8.0954 -8.9536,-66.6024 -0.3029,-27.775 -0.5931,-51.175 -0.6447,-52 -0.052,-0.825 0.1207,-5.3214 0.3831,-9.9919 0.2977,-5.30055 0.061,-9.16407 -0.6304,-10.28051 -0.8221,-1.32778 -0.8017,-1.97908 0.079,-2.52783 1.6657,-1.0378 1.6219,-64.19274 -0.044,-64.21508 -0.7817,-0.0105 -0.8076,-0.24705 -0.082,-0.75 1.3981,-0.96925 1.75,-8.90656 0.5712,-12.88351 -0.6102,-2.05885 -0.5783,-3.50378 0.092,-4.17424 0.7005,-0.70055 0.6857,-1.99985 -0.047,-4.10118 -0.6452,-1.85062 -0.6947,-3.07576 -0.1243,-3.07576 0.5489,0 0.9541,-5.57824 0.9625,-13.25 0.015,-13.7273 0.1116,-13.20486 -6.2382,-33.75 -1.1049,-3.575 -3.1091,-8.975 -4.4538,-12 -3.3313,-7.49385 -10.6958,-22.38525 -11.3746,-23 -0.3037,-0.275 -1.3388,-2.075 -2.3004,-4 -0.9615,-1.925 -3.0402,-5.525 -4.6193,-8 -4.3725,-6.85346 -4.0608,-7.81943 4.5937,-14.23566 7.3338,-5.43707 7.7118,-5.59178 10,-4.0925 1.308,0.857 2.3781,1.92428 2.3781,2.37174 0,0.44746 0.5844,1.40821 1.2987,2.13499 0.7142,0.72679 2.822,4.02143 4.6839,7.32143 3.6667,6.49875 5.101,7.98282 6.1205,6.33315 0.3608,-0.5837 0.7341,-41.15526 0.8297,-90.15902 0.096,-49.00376 0.5378,-89.56492986 0.9827,-90.1359399 0.4448,-0.571 1.101,-2.26219 1.4581,-3.7582 1.0312,-4.31894 7.5394,-10.2848901 14.8019,-13.5686501 9.1259,-4.12628 24.7912,-6.5096 34.3245,-5.22213 3.85,0.51994 9.7,0.96831 13,0.99637 4.4518,0.0378 8.1236,0.92579 14.2299,3.44123 4.5265,1.86462 8.9362,4.09646 9.7994,4.95964 0.8632,0.86318 2.1549,1.91685 2.8705,2.34149 2.0565,1.22034 8.6002,10.8389301 8.6002,12.64149014 0,1.39273996 1.8185,0.84460426 3.804,12.38011186 1.6446,125.128128 -2.3487,204.778508 -4.8037,259.417358 -1.226,33.56883 2.6614,105.27648 2.3089,147.40606 z m -33.5524,91.79405 c 11.2644,-4.2399 19.8943,-11.0196 23.669,-18.5946 l 2.5739,-5.1651 -0.046,-74.0536 c -0.031,-49.75648 -0.4599,-79.46741 -1.3069,-90.55371 -1.3715,-17.95134 -1.3176,-30.77797 0.309,-73.5 0.9758,-25.62864 1.6914,-38.23988 2.7803,-49 0.2226,-2.2 0.5953,-46.15869 0.8282,-97.68597 l 0.4234,-93.6859699 -4.2703,4.2098699 c -4.7737,4.70616 -10.9271,6.91968 -25.7174,9.25121 -15.1524,2.3886 -39.0701,1.57181 -45.5,-1.55382 -1.1,-0.53472 -4.335,-1.83272 -7.1888,-2.88444 -4.369,-1.61011 -5.2752,-1.687 -5.7358,-0.48664 -0.3009,0.78407 -0.6565,29.19287 -0.7903,63.13067 -0.1337,33.9378 -0.3801,73.06759 -0.5476,86.95509 l -0.3044,25.25 -2.5229,0 c -2.4687,0 -5.7762,-2.8937 -10.7176,-9.37659 -1.2059,-1.58213 -2.946,-3.68556 -3.8669,-4.67431 -0.9209,-0.98874 -2.1929,-2.76668 -2.8267,-3.95097 -0.7812,-1.45966 -1.6914,-1.93631 -2.8257,-1.47976 -4.6759,1.882 -4.7244,1.87906 -2.9233,-0.17755 3.2667,-3.73022 1.2585,-5.75371 -3.2928,-3.3179 -3.2887,1.76005 -4.1133,4.43245 -2.0507,6.64633 1.0026,1.07621 2.3583,2.95704 3.0126,4.17962 0.6543,1.22259 2.5051,2.48597 4.1129,2.80752 3.7868,0.75738 5.6201,2.85293 4.0991,4.68562 -1.5211,1.83283 -0.4235,2.65799 3.5356,2.65799 2.6666,0 3.3333,0.4 3.3333,2 0,1.31306 -0.6667,2 -1.941,2 -2.3573,0 -3.5349,1.58787 -1.9184,2.58691 0.6453,0.39881 3.1277,0.69557 5.5163,0.65946 2.3887,-0.0361 4.3362,0.23118 4.3278,0.59399 -0.034,1.449 -1.5867,2.94761 -3.4136,3.29396 -3.1507,0.59732 -2.0045,2.29353 2.2793,3.37298 5.6634,1.42706 5.9255,2.17995 1.247,3.58168 -2.2536,0.67518 -4.0974,1.56166 -4.0974,1.96997 0,0.4083 1.6529,1.13327 3.6731,1.61104 4.0017,0.94638 5.7692,3.33001 2.4693,3.33001 -3.0634,0 -3.4148,1.54266 -1.3023,5.7157 1.0537,2.08137 2.2477,5.3593 2.6533,7.2843 0.4057,1.925 1.2481,4.13367 1.8721,4.90816 0.8326,1.03347 1.1345,35.09242 1.1345,128 0,142.48555 -0.6843,130.27005 7.6856,137.20495 2.2482,1.8628 4.6362,3.9165 5.3066,4.5639 3.0029,2.8996 16.3017,8.0447 25.5078,9.8685 7.9557,1.5762 14.4279,0.9566 22.7571,-2.1785 z m -17.2571,-10.0043 c -3.6569,-0.9605 -13.9849,-4.6897 -15,-5.4161 -0.55,-0.3936 -2.4625,-1.0284 -4.25,-1.4106 -1.7875,-0.3822 -3.25,-1.1579 -3.25,-1.7239 0,-0.6259 1.0771,-0.7541 2.75,-0.3272 23.014,5.8721 38.5799,6.8887 47.4679,3.0999 4.7293,-2.016 6.8963,-2.0459 6.1437,-0.085 -0.3166,0.825 -0.9992,1.5 -1.5169,1.5 -0.5177,0 -2.8321,0.9522 -5.143,2.1159 -3.2974,1.6605 -6.4615,2.1864 -14.7017,2.444 -5.775,0.1805 -11.4,0.092 -12.5,-0.1972 z m 6.5,-12.5344 c -4.125,-0.4853 -8.85,-1.4954 -10.5,-2.2446 -1.65,-0.7492 -4.8,-2.1756 -7,-3.1698 -3.4516,-1.5599 -3.6911,-1.8589 -1.7467,-2.1808 1.2394,-0.2052 4.7246,0.3453 7.745,1.2234 7.5872,2.2056 22.8815,3.0372 28.5017,1.5497 2.475,-0.6551 6.0186,-1.4303 7.8747,-1.7226 5.4201,-0.8537 3.3807,1.6438 -3.4146,4.1815 -7.8396,2.9278 -12.3964,3.4296 -21.4601,2.3632 z m 4.5,-10.8654 c -7.6406,-0.8457 -16.5718,-2.7484 -18.471,-3.935 -2.8804,-1.7997 -0.054,-2.2129 6.9989,-1.0232 8.6364,1.4567 23.7016,1.7977 30.2221,0.684 3.306,-0.5646 4.75,-0.4731 4.75,0.301 0,3.0181 -12.7115,5.1673 -23.5,3.9732 z m -7.5,-12.4063 c -10.7248,-2.5689 -13,-3.3851 -13,-4.6636 0,-1.2761 1.597,-1.1375 12.6533,1.0976 5.6603,1.1442 13.8645,1.9946 19.2967,2 9.7028,0.01 10.649,0.7924 3.434,2.8408 -5.8368,1.6571 -11.4872,1.3353 -22.384,-1.2748 z m 3,-9.7627 c -1.925,-0.5507 -5.6375,-1.2231 -8.25,-1.4941 -2.6125,-0.2711 -4.75,-0.8921 -4.75,-1.3802 0,-0.4946 8.8497,-0.7838 19.9981,-0.6535 20.1125,0.2352 23.1878,0.897 15.9268,3.4275 -4.1177,1.4349 -18.0468,1.4959 -22.9249,0.1003 z m 3,-8.7688 c -7.978,-1.8531 -15.5593,-4.1874 -16.4333,-5.06 -1.8405,-1.8374 0.4362,-2.1767 6.6324,-0.9883 18.2773,3.5054 20.8622,3.553 29.3009,0.5394 5.1587,-1.8422 6.5683,-1.8577 5.8802,-0.065 -0.3064,0.7984 -2.2048,1.9821 -4.2186,2.6304 -2.0139,0.6482 -4.1116,1.5199 -4.6616,1.9369 -1.6052,1.2172 -12.6831,1.8928 -16.5,1.0062 z m -10,-11.1008 c 0,-1.5158 6.0559,-2.7931 15.9284,-3.3595 5.7356,-0.329 12.208,-0.8828 14.383,-1.2306 3.1289,-0.5003 3.8593,-0.3402 3.4978,0.7667 -1.0349,3.1692 -6.0716,4.2713 -20.0592,4.3892 -7.5625,0.064 -13.75,-0.1909 -13.75,-0.5658 z m 0.6134,-8.9171 c -9.568,-1.724 -7.0518,-2.7454 8.0625,-3.2726 11.8479,-0.4134 15.8689,-0.9362 20.0283,-2.6044 2.8624,-1.148 5.4202,-1.738 5.6841,-1.311 2.6969,4.3637 -21.2111,9.4518 -33.7749,7.188 z m -5.6134,-10.8454 c -8.8055,-1.295 -4.6713,-2.6599 8.5,-2.8064 11.583,-0.1288 22.3122,-1.1779 30.8805,-3.0194 5.4365,-1.1684 2.273,2.0315 -3.958,4.0035 -6.3516,2.0102 -26.9416,3.0694 -35.4225,1.8223 z m 9.5,-10.2668 c -2.75,-0.4633 -7.1375,-1.1068 -9.75,-1.4299 -2.6125,-0.3232 -4.75,-1.0159 -4.75,-1.5394 0,-0.5891 5.8121,-0.7052 15.25,-0.3049 13.7571,0.5836 15.9332,0.4408 22.2286,-1.4583 7.2819,-2.1968 10.5933,-1.5662 6.3559,1.2103 -2.913,1.9087 -15.6198,4.6752 -20.6499,4.4958 -2.0265,-0.072 -5.9346,-0.5104 -8.6846,-0.9736 z m -2.75,-10.6235 c -4.6113,-0.4823 -4.8926,-1.9995 -0.5,-2.6967 7.0829,-1.124 31.75,-1.1289 31.75,-0.01 0,2.3719 -5.2781,3.4288 -16.2971,3.2635 -6.1616,-0.092 -12.8904,-0.3447 -14.9529,-0.5604 z m 0.5614,-9.1843 c -5.2388,-0.6373 -7.1958,-1.5361 -5.9836,-2.7483 0.5496,-0.5497 8.1187,-0.5731 22.6722,-0.07 1.375,0.048 5.65,-0.2375 9.5,-0.6334 l 7,-0.7197 -2.444,1.9429 c -1.3442,1.0686 -4.0442,2.2077 -6,2.5313 -4.3429,0.7185 -17.693,0.5554 -24.7446,-0.3024 z m 4.6886,-7.809 c -8.9006,-0.92229 -19.638,-2.69945 -20.3988,-3.3762 -0.4943,-0.43976 7.8307,-0.72302 18.5,-0.62948 15.9225,0.13961 20.3721,-0.13838 24.8303,-1.55122 6.5719,-2.08273 8.0685,-2.14553 8.0685,-0.33862 0,2.49924 -22.4934,6.77702 -31,5.89552 z m 4,-9.90062 c -9.495,-1.12007 -17,-2.65106 -17,-3.46794 0,-1.27857 10.6666,-1.13195 18.7724,0.25805 6.0507,1.03758 7.6938,0.93511 14.7443,-0.91949 8.0323,-2.11284 10.5295,-2.09298 8.241,0.0656 -3.123,2.94564 -16.1332,5.08119 -24.7577,4.06383 z m 2.1786,-10.15188 c -7.5442,-0.21727 -10.2136,-0.62397 -9.9207,-1.51148 0.458,-1.38808 30.6125,-3.73371 31.4097,-2.44327 0.5337,0.86375 -4.8333,3.25226 -8.6676,3.85743 -1.375,0.21701 -7.1446,0.26081 -12.8214,0.0973 z m -6.9286,-11.94911 c -1.7875,-0.22182 -3.25,-0.82481 -3.25,-1.33996 0,-0.51515 0.3375,-0.96432 0.75,-0.99815 0.4125,-0.0338 6.15,-0.24257 12.75,-0.46388 6.6,-0.22131 13.9125,-0.6712 16.25,-0.99976 3.3529,-0.4713 4.25,-0.28533 4.25,0.88101 0,2.8902 -17.5577,4.55789 -30.75,2.92074 z m 4.25,-9.3479 c -17.8701,-1.40182 -15.9617,-3.79931 2.4938,-3.13289 10.3703,0.37447 13.9287,0.13267 18.0931,-1.22943 3.5482,-1.16058 5.5081,-1.37139 6.2113,-0.66814 0.7033,0.70325 0.1084,1.36314 -1.8854,2.09138 -1.602,0.58517 -4.0378,1.49823 -5.4128,2.02904 -3.4704,1.33969 -10.0866,1.64847 -19.5,0.91004 z m -4.75,-11.60537 c -5.5838,-0.29357 -7.75,-0.77976 -7.75,-1.73943 0,-1.03582 3.8355,-1.4586 17.25,-1.90146 9.4875,-0.31321 18.4875,-0.87235 20,-1.24253 3.7419,-0.91583 3.5772,1.08096 -0.2525,3.06136 -3.2809,1.69664 -16.2571,2.50502 -29.2475,1.82206 z m -12.2911,-9.38986 c -0.3626,-0.58659 -0.4746,-1.25106 -0.2491,-1.4766 0.2255,-0.22554 6.6831,-0.67825 14.3501,-1.00602 7.7378,-0.3308 15.8466,-1.23106 18.225,-2.0234 9.2664,-3.08689 9.849,-0.26139 0.6786,3.2907 -5.0701,1.96388 -7.7342,2.28185 -19.1182,2.28185 -8.2896,0 -13.4733,-0.39813 -13.8864,-1.06653 z m 4.2911,-11.61296 c -4.8125,-0.21911 -8.75,-0.80328 -8.75,-1.29817 0,-1.39354 7.1316,-2.10927 23.5,-2.35848 11.1718,-0.17009 15.582,-0.60296 17.2805,-1.69612 2.0101,-1.29372 2.391,-1.29016 3.2121,0.03 0.7177,1.15376 0.095,1.927 -2.7119,3.36698 -3.9328,2.0176 -15.6718,2.72338 -32.5307,1.95581 z m 11.75,-9.37788 c -2.2,-0.45505 -7.15,-0.89816 -11,-0.98468 -3.85,-0.0865 -8.125,-0.48306 -9.5,-0.8812 l -2.5,-0.72389 2.4336,-0.80208 c 1.3384,-0.44114 9.6634,-0.49101 18.5,-0.11081 13.0352,0.56084 17.1894,0.39627 22.0185,-0.87227 3.9597,-1.04017 6.2861,-1.2295 6.95,-0.56561 1.6679,1.66789 -0.4778,2.83098 -8.2316,4.46205 -7.8826,1.65815 -12.4068,1.7741 -18.6705,0.47849 z m 3.5,-9.07904 c -3.025,-0.36619 -8.2757,-0.7103 -11.6682,-0.76469 -6.4613,-0.1036 -9.3318,-0.75862 -9.3318,-2.12943 0,-0.4491 8.6625,-1.0195 19.25,-1.26756 10.5875,-0.24805 20.6,-0.79793 22.25,-1.22193 2.9707,-0.7634 2.9821,-0.75076 1.1673,1.29464 -1.6509,1.86076 -6.7855,3.52381 -13.6673,4.42675 -1.375,0.18041 -4.975,0.0284 -8,-0.33778 z m -6,-10.08641 c 0,-1.16132 2.0182,-1.64257 9.1442,-2.18051 5.0292,-0.37966 10.7092,-1.34423 12.6221,-2.14348 3.8186,-1.59553 7.2337,-1.90356 7.2337,-0.65246 0,0.44041 -2.1375,1.85307 -4.75,3.13925 -6.0599,2.98338 -24.25,4.36148 -24.25,1.8372 z m 8,-9.27718 c 0,-0.88563 0.9216,-1.50451 2.25,-1.51101 1.2375,-0.006 3.9375,-0.28993 6,-0.63084 4.6354,-0.76618 5.0508,0.99275 0.6008,2.54402 -4.591,1.60042 -8.8508,1.40686 -8.8508,-0.40217 z m 1.5,-252.00829 c 19.8999,-1.37505 27.8322,-6.5607299 25.2266,-16.4917099 -1.2889,-4.91232 -3.8317,-7.29416 -12.0638,-11.2999401 -5.6802,-2.76403 -9.2327,-3.71669 -17.1628,-4.60242 -5.5,-0.61431 -11.35,-1.09891 -13,-1.07688 -5.0994,0.0681 -0.6731,1.64782 6.5,2.31982 10.7462,1.00675 33.1414,10.0036601 31.5024,12.6556001 -0.5443,0.88061 -7.5522,-1.55741 -8.5024,-2.95792 -1.1369,-1.67577 -14.8385,-5.1902201 -24.4005,-6.2587501 -18.4325,-2.05979 -36.4205,1.2804 -39.6784,7.3679101 -0.6302,1.17749 -0.913,3.87602 -0.6286,5.99674004 0.2845,2.12070996 0.1258,3.85583996 -0.3525,3.85583996 -1.4171,0 -2.94,-3.63600996 -2.94,-7.01959 0,-6.46901 10.6606,-12.6026101 23.7708,-13.6766001 8.5117,-0.69729 8.8599,-1.69835 0.4955,-1.42503 -5.5332,0.18081 -12.6723,1.71148 -14.7663,3.16598 -0.55,0.38203 -2.5903,1.20606 -4.534,1.83118 -1.9437,0.62513 -5.035,2.5075 -6.8695,4.1830601 -3.1571,2.8836 -3.3111,3.33942 -2.881,8.52582004 0.666,8.03159996 4.4616,11.67973986 13.908,13.36791986 14.7153,2.62976 25.44,2.98565 46.3765,1.53897 z m -34,-4.48835 c -1.65,-0.4974399 -5.4294,-1.5936199 -8.3987,-2.4359499 -10.3748,-2.94313 -6.4737,-3.53714 6.3987,-0.97429 5.493,1.09363 13.2848,1.57846 24.8639,1.54709 23.3039,-0.0631 29.2298,-1.55538 32.3254,-8.14020996 0.9115,-1.93875004 1.1905,-2.09237004 1.243,-0.68426 0.1281,3.43568996 -2.1146,5.87510996 -7.767,8.44834996 -5.3982,2.4575399 -6.6083,2.5924499 -25.6653,2.8614199 -11,0.15526 -21.35,-0.12471 -23,-0.62215 z m 15.5261,-4.9660899 c -0.8107,-0.51266 -4.5232,-1.44643 -8.25,-2.07504 -3.7269,-0.62861 -6.7761,-1.60476 -6.7761,-2.16921 0,-0.60182996 0.9306,-0.74123996 2.25,-0.33707996 1.2375,0.37905996 7.0324,1.42223996 12.8775,2.31817996 8.4957,1.30223 12.1063,1.41787 18,0.5765 6.7168,-0.95889 10.2327,-0.96688 6.7656,-0.0154 -0.7662,0.21028 -3,0.89588 -4.9641,1.52354 -4.2823,1.36853 -17.829,1.49001 -19.9029,0.17848 z m -22.3711,-5.86600996 c -2.2302,-2.46435004 -2.0836,-3.99548004 0.595,-6.21516004 6.2757,-5.2004101 26.7782,-5.0869801 42.9678,0.23771 5.3448,1.75788 9.9628,3.83452 10.2622,4.61475 0.4356,1.13509004 -0.1821,1.28230004 -3.0909,0.73661 -1.9994,-0.37509 -4.3674,-1.06037 -5.2622,-1.52285 -3.4405,-1.7782 -16.3847,-4.05551 -26.2865,-4.62462 -8.3757,-0.48141 -11.0743,-0.27914 -14.2033,1.06457 -3.506,1.50567 -3.8086,1.93042 -3.275,4.59832 0.6881,3.44024 0.5075,3.55774 -1.7071,1.11067004 z M 1230.5559,-18.36897 c -0.3323,-0.33229 -1.1948,-0.36782 -1.9167,-0.0789 -0.7977,0.31923 -0.5608,0.55619 0.6042,0.60417 1.0541,0.0434 1.6448,-0.19293 1.3125,-0.52522 z"
       id="path3074"
       inkscape:connector-curvature="0"
       sodipodi:nodetypes="cccsssscccccccccsssscccscscscsccsscssssccccccssscscsssscsscscscssscscsssssscsssssscccssccccccsscscsssccssccccccsscccssssccssccssccccsscccccsccccsscssscssscccsscsccccsccccccccscccscsssscsssscccccsccsscsssssssccsssssssscsscssccssscsccsssccsssssssssscssssssssscsssssssssccsccsssssssssssssscsssscsssssccccssscssscssccccc" />
  </g>
</svg>
